<svg xmlns="http://www.w3.org/2000/svg" version="1.0" width="256.000000pt" height="256.000000pt" viewBox="0 0 256.000000 256.000000" preserveAspectRatio="xMidYMid meet">
<rect fill='#ffffff' width='256.000000pt' height='256.000000pt'/>
<g transform="translate(0.000000,256.000000) scale(0.100000,-0.100000)" fill="#faa61a" stroke="none">
<path d="M0 1280 l0 -1280 1280 0 1280 0 0 1280 0 1280 -1280 0 -1280 0 0 -1280z m1039 697 c8 -11 -1 -17 -47 -31 -81 -26 -197 -80 -269 -128 -35 -22 -63 -42 -63 -44 0 -2 29 10 65 26 176 79 347 114 560 114 200 0 355 -33 524 -109 65 -30 72 -31 47 -11 -40 33 -188 109 -266 137 -78 27 -76 25 -61 43 32 39 278 -36 407 -124 39 -27 53 -47 85 -117 105 -225 188 -579 189 -798 l0 -69 -70 -69 c-80 -78 -175 -128 -285 -152 -119 -25 -125 -23 -178 45 -49 63 -56 80 -33 80 44 0 246 131 246 160 0 4 -33 -10 -72 -30 -98 -51 -232 -97 -336 -115 -236 -41 -511 3 -727 118 -73 39 -83 35 -29 -12 53 -47 106 -80 168 -105 l55 -23 -51 -66 c-58 -76 -62 -77 -183 -52 -110 24 -205 74 -285 152 l-70 69 0 69 c1 219 84 573 189 798 32 70 46 90 85 117 92 63 220 113 331 130 28 4 53 8 56 9 4 0 11 -5 18 -12z"/>
<path d="M940 1373 c-64 -26 -109 -95 -110 -168 0 -54 37 -124 79 -152 46 -31 116 -31 162 0 42 28 79 98 79 152 0 49 -35 122 -72 148 -27 20 -110 32 -138 20z"/>
<path d="M1494 1361 c-58 -35 -79 -77 -79 -157 0 -62 3 -75 28 -107 50 -66 122 -85 194 -50 118 56 118 260 0 316 -46 22 -105 21 -143 -2z"/>
</g>
</svg>
